<svg width="35" height="35" viewBox="0 0 35 35" xmlns="http://www.w3.org/2000/svg" xmlns:xlink="http://www.w3.org/1999/xlink">
    <defs>
        <path d="m13.33 4.138-.002.023v.023c.002.033-.015.955-.71 1.717l-5.535 6.126-5.522-6.112a3.592 3.592 0 0 1-.596-1.187 4.351 4.351 0 0 1-.124-.555l-.004-.03v-.005A3.017 3.017 0 0 1 .828 3.6C.93 2.173 2.11.965 3.534.835a3.012 3.012 0 0 1 3.16 2.064h.779a3.012 3.012 0 0 1 3.16-2.064c1.422.13 2.603 1.338 2.704 2.765a3.246 3.246 0 0 1-.007.538m.836-.308c0-.096-.004-.193-.01-.29A3.859 3.859 0 0 0 10.71.017a3.818 3.818 0 0 0-3.627 1.811A3.818 3.818 0 0 0 3.456.018 3.858 3.858 0 0 0 0 3.83c0 .132.007.262.02.391.008.036.113 1.207.903 2.21l.008.01 6.152 6.81.304-.337 5.84-6.464c.904-1.008.919-2.134.921-2.265V4.18c.01-.116.018-.232.018-.35" id="zkppwldp7a"/>
    </defs>
    <g transform="translate(10.39 10.938)" fill="none" fill-rule="evenodd">        
        <use fill="#231F20" xlink:href="#zkppwldp7a"/>        
    </g>
</svg>
